<svg width="393" height="852" viewBox="0 0 393 852" fill="none" xmlns="http://www.w3.org/2000/svg">
<rect width="393" height="852" fill="url(#paint0_linear_7_112)"/>
<g filter="url(#filter0_d_7_112)">
<mask id="path-1-outside-1_7_112" maskUnits="userSpaceOnUse" x="164" y="468" width="65" height="29" fill="black">
<rect fill="white" x="164" y="468" width="65" height="29"/>
<path d="M172.135 480.168C174.279 480.168 175.951 480.776 177.151 481.992C178.367 483.192 178.975 485.184 178.975 487.968C178.975 490 178.623 491.68 177.919 493.008C177.231 494.336 176.111 495 174.559 495C173.599 495 172.831 494.704 172.255 494.112C171.679 493.52 171.391 492.728 171.391 491.736V490.92H171.343C170.575 490.92 169.919 490.68 169.375 490.2C168.831 489.704 168.559 489.056 168.559 488.256C168.559 487.456 168.831 486.808 169.375 486.312C169.935 485.816 170.647 485.568 171.511 485.568C172.455 485.568 173.159 485.864 173.623 486.456C174.087 487.032 174.319 487.848 174.319 488.904L174.295 489.72C174.263 490.328 174.247 490.84 174.247 491.256C174.247 491.816 174.263 492.176 174.295 492.336C174.327 492.496 174.399 492.576 174.511 492.576C174.623 492.576 174.759 492.344 174.919 491.88C175.079 491.4 175.215 490.792 175.327 490.056C175.439 489.304 175.495 488.544 175.495 487.776C175.495 485.952 175.223 484.672 174.679 483.936C174.135 483.2 173.287 482.832 172.135 482.832C170.823 482.832 169.887 483.168 169.327 483.84C168.767 484.512 168.431 485.536 168.319 486.912C168.287 487.248 168.151 487.536 167.911 487.776C167.671 488.016 167.295 488.136 166.783 488.136C166.223 488.136 165.815 487.992 165.559 487.704C165.303 487.4 165.175 486.92 165.175 486.264C165.175 485.128 165.447 484.096 165.991 483.168C166.535 482.24 167.335 481.512 168.391 480.984C169.447 480.44 170.695 480.168 172.135 480.168ZM170.527 488.352C170.527 488.624 170.615 488.856 170.791 489.048C170.967 489.224 171.199 489.312 171.487 489.312C171.775 489.312 172.007 489.232 172.183 489.072C172.359 488.896 172.447 488.664 172.447 488.376C172.447 488.088 172.359 487.856 172.183 487.68C172.007 487.488 171.783 487.392 171.511 487.392C171.223 487.392 170.983 487.488 170.791 487.68C170.615 487.856 170.527 488.08 170.527 488.352ZM180.104 472.232C180.44 472.232 180.688 472.344 180.848 472.568C181.024 472.792 181.112 473.096 181.112 473.48C181.112 473.88 181.032 474.2 180.872 474.44C180.712 474.664 180.472 474.776 180.152 474.776H178.088L178.064 476.408C178.064 476.76 177.936 477.032 177.68 477.224C177.408 477.4 177.072 477.488 176.672 477.488C176.272 477.488 175.944 477.392 175.688 477.2C175.416 477.008 175.28 476.736 175.28 476.384L175.304 474.776H173.312C172.976 474.776 172.72 474.656 172.544 474.416C172.368 474.176 172.28 473.864 172.28 473.48C172.28 473.112 172.376 472.808 172.568 472.568C172.744 472.312 172.992 472.184 173.312 472.184L175.304 472.208L175.328 470.624C175.328 470.304 175.472 470.056 175.76 469.88C176.032 469.688 176.36 469.592 176.744 469.592C177.128 469.592 177.456 469.688 177.728 469.88C178 470.056 178.136 470.304 178.136 470.624L178.112 472.208L180.104 472.232ZM187.376 480.48C189.632 480.48 191.32 481.248 192.44 482.784C193.576 484.304 194.144 486.528 194.144 489.456C194.144 490.96 193.96 492.112 193.592 492.912C193.24 493.696 192.616 494.248 191.72 494.568C190.84 494.888 189.56 495.048 187.88 495.048C186.824 495.048 185.904 494.952 185.12 494.76C184.336 494.568 183.672 494.144 183.128 493.488C182.6 492.832 182.336 491.856 182.336 490.56C182.336 489.072 182.688 488.008 183.392 487.368C184.112 486.728 184.928 486.408 185.84 486.408C186.704 486.408 187.36 486.64 187.808 487.104C188.272 487.552 188.504 488.152 188.504 488.904C188.504 489.56 188.296 490.144 187.88 490.656C187.48 491.168 186.936 491.424 186.248 491.424C186.04 491.424 185.848 491.4 185.672 491.352C185.704 491.752 185.88 492.032 186.2 492.192C186.536 492.336 187.152 492.408 188.048 492.408C188.768 492.408 189.304 492.336 189.656 492.192C190.008 492.048 190.256 491.76 190.4 491.328C190.56 490.88 190.64 490.184 190.64 489.24C190.64 487.16 190.392 485.608 189.896 484.584C189.4 483.56 188.56 483.048 187.376 483.048C186.72 483.048 186.176 483.24 185.744 483.624C185.312 483.992 185.096 484.472 185.096 485.064C185.096 485.976 184.52 486.432 183.368 486.432C182.824 486.432 182.416 486.336 182.144 486.144C181.888 485.936 181.76 485.6 181.76 485.136C181.76 484.272 182.008 483.488 182.504 482.784C183 482.064 183.672 481.504 184.52 481.104C185.384 480.688 186.336 480.48 187.376 480.48ZM185.864 488.16C185.608 488.16 185.4 488.24 185.24 488.4C185.08 488.544 185 488.744 185 489C185 489.256 185.072 489.456 185.216 489.6C185.376 489.744 185.584 489.816 185.84 489.816C186.128 489.816 186.344 489.736 186.488 489.576C186.632 489.4 186.704 489.192 186.704 488.952C186.704 488.696 186.624 488.504 186.464 488.376C186.304 488.232 186.104 488.16 185.864 488.16ZM203.494 480.168C205.638 480.168 207.31 480.776 208.51 481.992C209.726 483.192 210.334 485.184 210.334 487.968C210.334 490 209.982 491.68 209.278 493.008C208.59 494.336 207.47 495 205.918 495C204.958 495 204.19 494.704 203.614 494.112C203.038 493.52 202.75 492.728 202.75 491.736V490.92H202.702C201.934 490.92 201.278 490.68 200.734 490.2C200.19 489.704 199.918 489.056 199.918 488.256C199.918 487.456 200.19 486.808 200.734 486.312C201.294 485.816 202.006 485.568 202.87 485.568C203.814 485.568 204.518 485.864 204.982 486.456C205.446 487.032 205.678 487.848 205.678 488.904L205.654 489.72C205.622 490.328 205.606 490.84 205.606 491.256C205.606 491.816 205.622 492.176 205.654 492.336C205.686 492.496 205.758 492.576 205.87 492.576C205.982 492.576 206.118 492.344 206.278 491.88C206.438 491.4 206.574 490.792 206.686 490.056C206.798 489.304 206.854 488.544 206.854 487.776C206.854 485.952 206.582 484.672 206.038 483.936C205.494 483.2 204.646 482.832 203.494 482.832C202.182 482.832 201.246 483.168 200.686 483.84C200.126 484.512 199.79 485.536 199.678 486.912C199.646 487.248 199.51 487.536 199.27 487.776C199.03 488.016 198.654 488.136 198.142 488.136C197.582 488.136 197.174 487.992 196.918 487.704C196.662 487.4 196.534 486.92 196.534 486.264C196.534 485.128 196.806 484.096 197.35 483.168C197.894 482.24 198.694 481.512 199.75 480.984C200.806 480.44 202.054 480.168 203.494 480.168ZM201.886 488.352C201.886 488.624 201.974 488.856 202.15 489.048C202.326 489.224 202.558 489.312 202.846 489.312C203.134 489.312 203.366 489.232 203.542 489.072C203.718 488.896 203.806 488.664 203.806 488.376C203.806 488.088 203.718 487.856 203.542 487.68C203.366 487.488 203.142 487.392 202.87 487.392C202.582 487.392 202.342 487.488 202.15 487.68C201.974 487.856 201.886 488.08 201.886 488.352ZM220.127 480.552C222.431 480.552 224.183 481.248 225.383 482.64C226.599 484.032 227.207 486 227.207 488.544V493.848C227.207 494.216 227.055 494.512 226.751 494.736C226.447 494.944 226.023 495.048 225.479 495.048C224.967 495.048 224.543 494.944 224.207 494.736C223.871 494.512 223.703 494.216 223.703 493.848V488.64C223.703 486.864 223.391 485.512 222.767 484.584C222.159 483.656 221.239 483.192 220.007 483.192C218.807 483.192 217.887 483.712 217.247 484.752C216.623 485.792 216.311 487.336 216.311 489.384C216.311 491.352 216.423 492.336 216.647 492.336C216.727 492.336 216.927 492.248 217.247 492.072C217.583 491.896 217.927 491.672 218.279 491.4C218.775 491.048 219.167 490.704 219.455 490.368H219.359C218.847 490.336 218.383 490.112 217.967 489.696C217.567 489.28 217.367 488.76 217.367 488.136C217.367 487.368 217.615 486.744 218.111 486.264C218.623 485.768 219.303 485.52 220.151 485.52C220.983 485.52 221.639 485.768 222.119 486.264C222.615 486.744 222.863 487.368 222.863 488.136C222.863 489.032 222.623 489.848 222.143 490.584C221.663 491.32 220.975 492.096 220.079 492.912C219.359 493.584 218.591 494.12 217.775 494.52C216.959 494.92 216.231 495.12 215.591 495.12C214.263 495.12 213.479 494.4 213.239 492.96C213.159 492.496 213.095 491.84 213.047 490.992C212.999 490.144 212.975 489.392 212.975 488.736C212.975 486.112 213.583 484.096 214.799 482.688C216.015 481.264 217.791 480.552 220.127 480.552ZM219.119 488.064C219.119 488.368 219.215 488.608 219.407 488.784C219.615 488.96 219.855 489.048 220.127 489.048C220.799 489.048 221.135 488.72 221.135 488.064C221.135 487.808 221.031 487.592 220.823 487.416C220.631 487.224 220.399 487.128 220.127 487.128C219.823 487.128 219.575 487.224 219.383 487.416C219.207 487.592 219.119 487.808 219.119 488.064Z"/>
</mask>
<path d="M172.135 480.168C174.279 480.168 175.951 480.776 177.151 481.992C178.367 483.192 178.975 485.184 178.975 487.968C178.975 490 178.623 491.68 177.919 493.008C177.231 494.336 176.111 495 174.559 495C173.599 495 172.831 494.704 172.255 494.112C171.679 493.52 171.391 492.728 171.391 491.736V490.92H171.343C170.575 490.92 169.919 490.68 169.375 490.2C168.831 489.704 168.559 489.056 168.559 488.256C168.559 487.456 168.831 486.808 169.375 486.312C169.935 485.816 170.647 485.568 171.511 485.568C172.455 485.568 173.159 485.864 173.623 486.456C174.087 487.032 174.319 487.848 174.319 488.904L174.295 489.72C174.263 490.328 174.247 490.84 174.247 491.256C174.247 491.816 174.263 492.176 174.295 492.336C174.327 492.496 174.399 492.576 174.511 492.576C174.623 492.576 174.759 492.344 174.919 491.88C175.079 491.4 175.215 490.792 175.327 490.056C175.439 489.304 175.495 488.544 175.495 487.776C175.495 485.952 175.223 484.672 174.679 483.936C174.135 483.2 173.287 482.832 172.135 482.832C170.823 482.832 169.887 483.168 169.327 483.84C168.767 484.512 168.431 485.536 168.319 486.912C168.287 487.248 168.151 487.536 167.911 487.776C167.671 488.016 167.295 488.136 166.783 488.136C166.223 488.136 165.815 487.992 165.559 487.704C165.303 487.4 165.175 486.92 165.175 486.264C165.175 485.128 165.447 484.096 165.991 483.168C166.535 482.24 167.335 481.512 168.391 480.984C169.447 480.44 170.695 480.168 172.135 480.168ZM170.527 488.352C170.527 488.624 170.615 488.856 170.791 489.048C170.967 489.224 171.199 489.312 171.487 489.312C171.775 489.312 172.007 489.232 172.183 489.072C172.359 488.896 172.447 488.664 172.447 488.376C172.447 488.088 172.359 487.856 172.183 487.68C172.007 487.488 171.783 487.392 171.511 487.392C171.223 487.392 170.983 487.488 170.791 487.68C170.615 487.856 170.527 488.08 170.527 488.352ZM180.104 472.232C180.44 472.232 180.688 472.344 180.848 472.568C181.024 472.792 181.112 473.096 181.112 473.48C181.112 473.88 181.032 474.2 180.872 474.44C180.712 474.664 180.472 474.776 180.152 474.776H178.088L178.064 476.408C178.064 476.76 177.936 477.032 177.68 477.224C177.408 477.4 177.072 477.488 176.672 477.488C176.272 477.488 175.944 477.392 175.688 477.2C175.416 477.008 175.28 476.736 175.28 476.384L175.304 474.776H173.312C172.976 474.776 172.72 474.656 172.544 474.416C172.368 474.176 172.28 473.864 172.28 473.48C172.28 473.112 172.376 472.808 172.568 472.568C172.744 472.312 172.992 472.184 173.312 472.184L175.304 472.208L175.328 470.624C175.328 470.304 175.472 470.056 175.76 469.88C176.032 469.688 176.36 469.592 176.744 469.592C177.128 469.592 177.456 469.688 177.728 469.88C178 470.056 178.136 470.304 178.136 470.624L178.112 472.208L180.104 472.232ZM187.376 480.48C189.632 480.48 191.32 481.248 192.44 482.784C193.576 484.304 194.144 486.528 194.144 489.456C194.144 490.96 193.96 492.112 193.592 492.912C193.24 493.696 192.616 494.248 191.72 494.568C190.84 494.888 189.56 495.048 187.88 495.048C186.824 495.048 185.904 494.952 185.12 494.76C184.336 494.568 183.672 494.144 183.128 493.488C182.6 492.832 182.336 491.856 182.336 490.56C182.336 489.072 182.688 488.008 183.392 487.368C184.112 486.728 184.928 486.408 185.84 486.408C186.704 486.408 187.36 486.64 187.808 487.104C188.272 487.552 188.504 488.152 188.504 488.904C188.504 489.56 188.296 490.144 187.88 490.656C187.48 491.168 186.936 491.424 186.248 491.424C186.04 491.424 185.848 491.4 185.672 491.352C185.704 491.752 185.88 492.032 186.2 492.192C186.536 492.336 187.152 492.408 188.048 492.408C188.768 492.408 189.304 492.336 189.656 492.192C190.008 492.048 190.256 491.76 190.4 491.328C190.56 490.88 190.64 490.184 190.64 489.24C190.64 487.16 190.392 485.608 189.896 484.584C189.4 483.56 188.56 483.048 187.376 483.048C186.72 483.048 186.176 483.24 185.744 483.624C185.312 483.992 185.096 484.472 185.096 485.064C185.096 485.976 184.52 486.432 183.368 486.432C182.824 486.432 182.416 486.336 182.144 486.144C181.888 485.936 181.76 485.6 181.76 485.136C181.76 484.272 182.008 483.488 182.504 482.784C183 482.064 183.672 481.504 184.52 481.104C185.384 480.688 186.336 480.48 187.376 480.48ZM185.864 488.16C185.608 488.16 185.4 488.24 185.24 488.4C185.08 488.544 185 488.744 185 489C185 489.256 185.072 489.456 185.216 489.6C185.376 489.744 185.584 489.816 185.84 489.816C186.128 489.816 186.344 489.736 186.488 489.576C186.632 489.4 186.704 489.192 186.704 488.952C186.704 488.696 186.624 488.504 186.464 488.376C186.304 488.232 186.104 488.16 185.864 488.16ZM203.494 480.168C205.638 480.168 207.31 480.776 208.51 481.992C209.726 483.192 210.334 485.184 210.334 487.968C210.334 490 209.982 491.68 209.278 493.008C208.59 494.336 207.47 495 205.918 495C204.958 495 204.19 494.704 203.614 494.112C203.038 493.52 202.75 492.728 202.75 491.736V490.92H202.702C201.934 490.92 201.278 490.68 200.734 490.2C200.19 489.704 199.918 489.056 199.918 488.256C199.918 487.456 200.19 486.808 200.734 486.312C201.294 485.816 202.006 485.568 202.87 485.568C203.814 485.568 204.518 485.864 204.982 486.456C205.446 487.032 205.678 487.848 205.678 488.904L205.654 489.72C205.622 490.328 205.606 490.84 205.606 491.256C205.606 491.816 205.622 492.176 205.654 492.336C205.686 492.496 205.758 492.576 205.87 492.576C205.982 492.576 206.118 492.344 206.278 491.88C206.438 491.4 206.574 490.792 206.686 490.056C206.798 489.304 206.854 488.544 206.854 487.776C206.854 485.952 206.582 484.672 206.038 483.936C205.494 483.2 204.646 482.832 203.494 482.832C202.182 482.832 201.246 483.168 200.686 483.84C200.126 484.512 199.79 485.536 199.678 486.912C199.646 487.248 199.51 487.536 199.27 487.776C199.03 488.016 198.654 488.136 198.142 488.136C197.582 488.136 197.174 487.992 196.918 487.704C196.662 487.4 196.534 486.92 196.534 486.264C196.534 485.128 196.806 484.096 197.35 483.168C197.894 482.24 198.694 481.512 199.75 480.984C200.806 480.44 202.054 480.168 203.494 480.168ZM201.886 488.352C201.886 488.624 201.974 488.856 202.15 489.048C202.326 489.224 202.558 489.312 202.846 489.312C203.134 489.312 203.366 489.232 203.542 489.072C203.718 488.896 203.806 488.664 203.806 488.376C203.806 488.088 203.718 487.856 203.542 487.68C203.366 487.488 203.142 487.392 202.87 487.392C202.582 487.392 202.342 487.488 202.15 487.68C201.974 487.856 201.886 488.08 201.886 488.352ZM220.127 480.552C222.431 480.552 224.183 481.248 225.383 482.64C226.599 484.032 227.207 486 227.207 488.544V493.848C227.207 494.216 227.055 494.512 226.751 494.736C226.447 494.944 226.023 495.048 225.479 495.048C224.967 495.048 224.543 494.944 224.207 494.736C223.871 494.512 223.703 494.216 223.703 493.848V488.64C223.703 486.864 223.391 485.512 222.767 484.584C222.159 483.656 221.239 483.192 220.007 483.192C218.807 483.192 217.887 483.712 217.247 484.752C216.623 485.792 216.311 487.336 216.311 489.384C216.311 491.352 216.423 492.336 216.647 492.336C216.727 492.336 216.927 492.248 217.247 492.072C217.583 491.896 217.927 491.672 218.279 491.4C218.775 491.048 219.167 490.704 219.455 490.368H219.359C218.847 490.336 218.383 490.112 217.967 489.696C217.567 489.28 217.367 488.76 217.367 488.136C217.367 487.368 217.615 486.744 218.111 486.264C218.623 485.768 219.303 485.52 220.151 485.52C220.983 485.52 221.639 485.768 222.119 486.264C222.615 486.744 222.863 487.368 222.863 488.136C222.863 489.032 222.623 489.848 222.143 490.584C221.663 491.32 220.975 492.096 220.079 492.912C219.359 493.584 218.591 494.12 217.775 494.52C216.959 494.92 216.231 495.12 215.591 495.12C214.263 495.12 213.479 494.4 213.239 492.96C213.159 492.496 213.095 491.84 213.047 490.992C212.999 490.144 212.975 489.392 212.975 488.736C212.975 486.112 213.583 484.096 214.799 482.688C216.015 481.264 217.791 480.552 220.127 480.552ZM219.119 488.064C219.119 488.368 219.215 488.608 219.407 488.784C219.615 488.96 219.855 489.048 220.127 489.048C220.799 489.048 221.135 488.72 221.135 488.064C221.135 487.808 221.031 487.592 220.823 487.416C220.631 487.224 220.399 487.128 220.127 487.128C219.823 487.128 219.575 487.224 219.383 487.416C219.207 487.592 219.119 487.808 219.119 488.064Z" fill="#FAF9F6"/>
<path d="M177.151 481.992L176.439 482.694L176.448 482.704L177.151 481.992ZM177.919 493.008L177.035 492.54L177.031 492.548L177.919 493.008ZM172.255 494.112L171.538 494.809H171.538L172.255 494.112ZM171.391 490.92H172.391V489.92H171.391V490.92ZM169.375 490.2L168.701 490.939L168.707 490.944L168.713 490.95L169.375 490.2ZM169.375 486.312L168.712 485.563L168.706 485.568L168.701 485.573L169.375 486.312ZM173.623 486.456L172.836 487.073L172.844 487.083L173.623 486.456ZM174.319 488.904L175.318 488.933L175.319 488.919V488.904H174.319ZM174.295 489.72L175.293 489.773L175.294 489.761L175.294 489.749L174.295 489.72ZM174.295 492.336L175.275 492.14L174.295 492.336ZM174.919 491.88L175.864 492.206L175.868 492.196L174.919 491.88ZM175.327 490.056L176.315 490.206L176.316 490.203L175.327 490.056ZM169.327 483.84L168.559 483.2L169.327 483.84ZM168.319 486.912L169.314 487.007L169.316 486.993L168.319 486.912ZM167.911 487.776L167.204 487.069L167.204 487.069L167.911 487.776ZM165.559 487.704L164.794 488.348L164.803 488.358L164.811 488.368L165.559 487.704ZM165.991 483.168L165.128 482.662L165.128 482.662L165.991 483.168ZM168.391 480.984L168.838 481.878L168.849 481.873L168.391 480.984ZM170.791 489.048L170.054 489.724L170.068 489.74L170.084 489.755L170.791 489.048ZM172.183 489.072L172.856 489.812L172.873 489.796L172.89 489.779L172.183 489.072ZM172.183 487.68L171.446 488.356L171.46 488.372L171.476 488.387L172.183 487.68ZM172.135 481.168C174.083 481.168 175.472 481.715 176.439 482.694L177.863 481.29C176.429 479.837 174.474 479.168 172.135 479.168V481.168ZM176.448 482.704C177.384 483.627 177.975 485.29 177.975 487.968H179.975C179.975 485.078 179.35 482.757 177.853 481.28L176.448 482.704ZM177.975 487.968C177.975 489.892 177.641 491.398 177.035 492.54L178.802 493.476C179.605 491.962 179.975 490.108 179.975 487.968H177.975ZM177.031 492.548C176.76 493.071 176.429 493.419 176.053 493.642C175.675 493.866 175.19 494 174.559 494V496C175.48 496 176.331 495.802 177.073 495.362C177.817 494.921 178.39 494.273 178.807 493.468L177.031 492.548ZM174.559 494C173.821 494 173.329 493.782 172.972 493.415L171.538 494.809C172.333 495.626 173.376 496 174.559 496V494ZM172.972 493.415C172.613 493.046 172.391 492.523 172.391 491.736H170.391C170.391 492.933 170.745 493.994 171.538 494.809L172.972 493.415ZM172.391 491.736V490.92H170.391V491.736H172.391ZM171.391 489.92H171.343V491.92H171.391V489.92ZM171.343 489.92C170.803 489.92 170.386 489.759 170.036 489.45L168.713 490.95C169.451 491.601 170.347 491.92 171.343 491.92V489.92ZM170.049 489.461C169.732 489.172 169.559 488.802 169.559 488.256H167.559C167.559 489.31 167.93 490.236 168.701 490.939L170.049 489.461ZM169.559 488.256C169.559 487.71 169.732 487.34 170.049 487.051L168.701 485.573C167.93 486.276 167.559 487.202 167.559 488.256H169.559ZM170.038 487.061C170.387 486.751 170.851 486.568 171.511 486.568V484.568C170.443 484.568 169.483 484.881 168.712 485.563L170.038 487.061ZM171.511 486.568C172.234 486.568 172.609 486.783 172.836 487.073L174.41 485.839C173.709 484.945 172.676 484.568 171.511 484.568V486.568ZM172.844 487.083C173.115 487.419 173.319 487.981 173.319 488.904H175.319C175.319 487.715 175.059 486.645 174.402 485.829L172.844 487.083ZM173.319 488.875L173.295 489.691L175.294 489.749L175.318 488.933L173.319 488.875ZM173.296 489.667C173.264 490.286 173.247 490.816 173.247 491.256H175.247C175.247 490.864 175.262 490.37 175.293 489.773L173.296 489.667ZM173.247 491.256C173.247 491.789 173.259 492.256 173.314 492.532L175.275 492.14C175.276 492.141 175.266 492.076 175.258 491.902C175.251 491.742 175.247 491.528 175.247 491.256H173.247ZM173.314 492.532C173.349 492.704 173.427 492.96 173.63 493.185C173.864 493.445 174.184 493.576 174.511 493.576V491.576C174.604 491.576 174.716 491.593 174.833 491.644C174.951 491.695 175.045 491.769 175.116 491.847C175.247 491.992 175.273 492.128 175.275 492.14L173.314 492.532ZM174.511 493.576C174.896 493.576 175.159 493.378 175.283 493.263C175.412 493.141 175.502 493.006 175.56 492.908C175.678 492.706 175.777 492.458 175.864 492.206L173.973 491.554C173.9 491.766 173.852 491.866 173.834 491.896C173.824 491.914 173.848 491.866 173.916 491.802C173.977 491.745 174.181 491.576 174.511 491.576V493.576ZM175.868 492.196C176.052 491.643 176.198 490.975 176.315 490.206L174.338 489.906C174.231 490.609 174.106 491.157 173.97 491.564L175.868 492.196ZM176.316 490.203C176.435 489.402 176.495 488.593 176.495 487.776H174.495C174.495 488.495 174.442 489.206 174.338 489.909L176.316 490.203ZM176.495 487.776C176.495 485.916 176.23 484.352 175.483 483.342L173.875 484.53C174.216 484.992 174.495 485.988 174.495 487.776H176.495ZM175.483 483.342C174.702 482.285 173.513 481.832 172.135 481.832V483.832C173.061 483.832 173.567 484.115 173.875 484.53L175.483 483.342ZM172.135 481.832C170.677 481.832 169.388 482.205 168.559 483.2L170.095 484.48C170.386 484.131 170.969 483.832 172.135 483.832V481.832ZM168.559 483.2C167.81 484.098 167.442 485.359 167.322 486.831L169.316 486.993C169.42 485.713 169.723 484.926 170.095 484.48L168.559 483.2ZM167.323 486.817C167.314 486.92 167.28 486.992 167.204 487.069L168.618 488.483C169.021 488.08 169.26 487.576 169.314 487.007L167.323 486.817ZM167.204 487.069C167.228 487.045 167.163 487.136 166.783 487.136V489.136C167.427 489.136 168.114 488.987 168.618 488.483L167.204 487.069ZM166.783 487.136C166.585 487.136 166.461 487.11 166.39 487.085C166.325 487.062 166.309 487.042 166.306 487.04L164.811 488.368C165.33 488.952 166.069 489.136 166.783 489.136V487.136ZM166.324 487.06C166.291 487.021 166.175 486.826 166.175 486.264H164.175C164.175 487.014 164.315 487.779 164.794 488.348L166.324 487.06ZM166.175 486.264C166.175 485.295 166.405 484.44 166.854 483.674L165.128 482.662C164.489 483.752 164.175 484.961 164.175 486.264H166.175ZM166.854 483.674C167.29 482.929 167.938 482.329 168.838 481.878L167.944 480.09C166.732 480.695 165.78 481.551 165.128 482.662L166.854 483.674ZM168.849 481.873C169.736 481.416 170.821 481.168 172.135 481.168V479.168C170.569 479.168 169.158 479.464 167.933 480.095L168.849 481.873ZM169.527 488.352C169.527 488.862 169.701 489.339 170.054 489.724L171.528 488.372C171.524 488.368 171.523 488.366 171.524 488.368C171.525 488.37 171.527 488.372 171.528 488.375C171.529 488.378 171.529 488.379 171.528 488.376C171.528 488.374 171.527 488.366 171.527 488.352H169.527ZM170.084 489.755C170.477 490.148 170.979 490.312 171.487 490.312V488.312C171.445 488.312 171.438 488.306 171.451 488.311C171.458 488.314 171.467 488.318 171.477 488.324C171.486 488.33 171.493 488.336 171.498 488.341L170.084 489.755ZM171.487 490.312C171.968 490.312 172.458 490.173 172.856 489.812L171.51 488.332C171.517 488.326 171.525 488.32 171.533 488.315C171.542 488.31 171.548 488.308 171.551 488.307C171.556 488.305 171.539 488.312 171.487 488.312V490.312ZM172.89 489.779C173.283 489.386 173.447 488.884 173.447 488.376H171.447C171.447 488.418 171.441 488.425 171.446 488.411C171.448 488.405 171.453 488.396 171.459 488.386C171.465 488.377 171.471 488.369 171.476 488.365L172.89 489.779ZM173.447 488.376C173.447 487.868 173.283 487.366 172.89 486.973L171.476 488.387C171.471 488.383 171.465 488.375 171.459 488.366C171.453 488.356 171.448 488.347 171.446 488.341C171.441 488.327 171.447 488.334 171.447 488.376H173.447ZM172.92 487.004C172.545 486.596 172.049 486.392 171.511 486.392V488.392C171.52 488.392 171.521 488.393 171.516 488.392C171.51 488.391 171.501 488.388 171.489 488.383C171.477 488.378 171.466 488.372 171.458 488.366C171.449 488.359 171.445 488.355 171.446 488.356L172.92 487.004ZM171.511 486.392C170.975 486.392 170.476 486.581 170.084 486.973L171.498 488.387C171.502 488.384 171.502 488.384 171.499 488.386C171.495 488.388 171.491 488.391 171.486 488.392C171.482 488.394 171.48 488.394 171.483 488.394C171.486 488.393 171.494 488.392 171.511 488.392V486.392ZM170.084 486.973C169.702 487.355 169.527 487.842 169.527 488.352H171.527C171.527 488.345 171.527 488.34 171.527 488.337C171.528 488.333 171.528 488.332 171.528 488.332C171.528 488.332 171.528 488.333 171.527 488.336C171.526 488.338 171.525 488.342 171.524 488.346C171.52 488.354 171.516 488.363 171.51 488.372C171.504 488.38 171.5 488.385 171.498 488.387L170.084 486.973ZM180.104 472.232L180.092 473.232H180.104V472.232ZM180.848 472.568L180.034 473.149L180.047 473.168L180.061 473.186L180.848 472.568ZM180.872 474.44L181.686 475.021L181.695 475.008L181.704 474.995L180.872 474.44ZM178.088 474.776V473.776H177.102L177.088 474.761L178.088 474.776ZM178.064 476.408L177.064 476.393L177.064 476.401V476.408H178.064ZM177.68 477.224L178.223 478.064L178.252 478.045L178.28 478.024L177.68 477.224ZM175.688 477.2L176.288 476.4L176.276 476.391L176.264 476.383L175.688 477.2ZM175.28 476.384L174.28 476.369L174.28 476.377V476.384H175.28ZM175.304 474.776L176.304 474.791L176.319 473.776H175.304V474.776ZM172.568 472.568L173.349 473.193L173.371 473.164L173.392 473.135L172.568 472.568ZM173.312 472.184L173.324 471.184H173.312V472.184ZM175.304 472.208L175.292 473.208L176.289 473.22L176.304 472.223L175.304 472.208ZM175.328 470.624L176.328 470.639L176.328 470.632V470.624H175.328ZM175.76 469.88L176.281 470.733L176.309 470.716L176.336 470.697L175.76 469.88ZM177.728 469.88L177.151 470.697L177.168 470.709L177.185 470.72L177.728 469.88ZM178.136 470.624L179.136 470.639L179.136 470.632V470.624H178.136ZM178.112 472.208L177.112 472.193L177.097 473.196L178.1 473.208L178.112 472.208ZM180.104 473.232C180.162 473.232 180.162 473.242 180.13 473.227C180.114 473.22 180.095 473.209 180.076 473.193C180.056 473.177 180.043 473.161 180.034 473.149L181.662 471.987C181.272 471.441 180.682 471.232 180.104 471.232V473.232ZM180.061 473.186C180.062 473.186 180.073 473.2 180.085 473.242C180.098 473.287 180.112 473.363 180.112 473.48H182.112C182.112 472.95 181.99 472.403 181.634 471.95L180.061 473.186ZM180.112 473.48C180.112 473.756 180.055 473.862 180.04 473.885L181.704 474.995C182.008 474.538 182.112 474.004 182.112 473.48H180.112ZM180.058 473.859C180.064 473.85 180.076 473.836 180.094 473.821C180.112 473.806 180.131 473.794 180.149 473.786C180.186 473.769 180.196 473.776 180.152 473.776V475.776C180.735 475.776 181.305 475.553 181.686 475.021L180.058 473.859ZM180.152 473.776H178.088V475.776H180.152V473.776ZM177.088 474.761L177.064 476.393L179.064 476.423L179.088 474.791L177.088 474.761ZM177.064 476.408C177.064 476.435 177.061 476.451 177.06 476.456C177.059 476.461 177.059 476.458 177.063 476.45C177.065 476.446 177.067 476.442 177.07 476.438C177.072 476.434 177.075 476.43 177.077 476.427C177.083 476.421 177.085 476.42 177.08 476.424L178.28 478.024C178.815 477.622 179.064 477.038 179.064 476.408H177.064ZM177.137 476.384C177.061 476.434 176.924 476.488 176.672 476.488V478.488C177.219 478.488 177.755 478.366 178.223 478.064L177.137 476.384ZM176.672 476.488C176.433 476.488 176.331 476.433 176.288 476.4L175.088 478C175.556 478.351 176.11 478.488 176.672 478.488V476.488ZM176.264 476.383C176.256 476.377 176.256 476.375 176.26 476.381C176.262 476.383 176.265 476.387 176.268 476.391C176.271 476.395 176.274 476.4 176.276 476.405C176.279 476.409 176.28 476.413 176.281 476.416C176.282 476.419 176.282 476.421 176.282 476.42C176.282 476.419 176.28 476.408 176.28 476.384H174.28C174.28 477.039 174.556 477.625 175.111 478.017L176.264 476.383ZM176.28 476.399L176.304 474.791L174.304 474.761L174.28 476.369L176.28 476.399ZM175.304 473.776H173.312V475.776H175.304V473.776ZM173.312 473.776C173.263 473.776 173.265 473.768 173.292 473.781C173.305 473.787 173.319 473.795 173.331 473.805C173.343 473.815 173.349 473.823 173.35 473.825L171.737 475.007C172.128 475.54 172.704 475.776 173.312 475.776V473.776ZM173.35 473.825C173.332 473.8 173.28 473.713 173.28 473.48H171.28C171.28 474.015 171.403 474.552 171.737 475.007L173.35 473.825ZM173.28 473.48C173.28 473.293 173.325 473.222 173.349 473.193L171.787 471.943C171.427 472.394 171.28 472.931 171.28 473.48H173.28ZM173.392 473.135C173.396 473.129 173.394 473.133 173.385 473.141C173.375 473.15 173.361 473.16 173.344 473.169C173.328 473.177 173.314 473.182 173.305 473.184C173.297 473.185 173.299 473.184 173.312 473.184V471.184C172.674 471.184 172.113 471.465 171.744 472.001L173.392 473.135ZM173.3 473.184L175.292 473.208L175.316 471.208L173.324 471.184L173.3 473.184ZM176.304 472.223L176.328 470.639L174.328 470.609L174.304 472.193L176.304 472.223ZM176.328 470.624C176.328 470.619 176.328 470.627 176.324 470.643C176.32 470.66 176.312 470.68 176.301 470.7C176.275 470.743 176.254 470.75 176.281 470.733L175.238 469.027C174.673 469.372 174.328 469.933 174.328 470.624H176.328ZM176.336 470.697C176.415 470.642 176.534 470.592 176.744 470.592V468.592C176.186 468.592 175.649 468.734 175.183 469.063L176.336 470.697ZM176.744 470.592C176.954 470.592 177.073 470.642 177.151 470.697L178.304 469.063C177.839 468.734 177.302 468.592 176.744 468.592V470.592ZM177.185 470.72C177.194 470.726 177.193 470.727 177.186 470.719C177.178 470.711 177.167 470.697 177.157 470.679C177.147 470.66 177.141 470.643 177.138 470.63C177.135 470.618 177.136 470.615 177.136 470.624H179.136C179.136 469.96 178.824 469.398 178.271 469.04L177.185 470.72ZM177.136 470.609L177.112 472.193L179.112 472.223L179.136 470.639L177.136 470.609ZM178.1 473.208L180.092 473.232L180.116 471.232L178.124 471.208L178.1 473.208ZM192.44 482.784L191.632 483.373L191.639 483.383L192.44 482.784ZM193.592 492.912L192.683 492.494L192.68 492.502L193.592 492.912ZM191.72 494.568L191.383 493.626L191.378 493.628L191.72 494.568ZM185.12 494.76L184.882 495.731L185.12 494.76ZM183.128 493.488L182.349 494.115L182.353 494.121L182.358 494.126L183.128 493.488ZM183.392 487.368L182.727 486.621L182.719 486.628L183.392 487.368ZM187.808 487.104L187.088 487.799L187.101 487.811L187.113 487.823L187.808 487.104ZM187.88 490.656L187.104 490.025L187.098 490.033L187.092 490.04L187.88 490.656ZM185.672 491.352L185.935 490.387L184.561 490.013L184.675 491.432L185.672 491.352ZM186.2 492.192L185.753 493.086L185.779 493.1L185.806 493.111L186.2 492.192ZM189.656 492.192L189.277 491.266L189.656 492.192ZM190.4 491.328L189.458 490.992L189.454 491.002L189.451 491.012L190.4 491.328ZM189.896 484.584L190.796 484.148L189.896 484.584ZM185.744 483.624L186.392 484.385L186.4 484.378L186.408 484.371L185.744 483.624ZM182.144 486.144L181.513 486.92L181.539 486.941L181.567 486.961L182.144 486.144ZM182.504 482.784L183.321 483.36L183.327 483.351L182.504 482.784ZM184.52 481.104L184.946 482.008L184.954 482.005L184.52 481.104ZM185.24 488.4L185.909 489.143L185.928 489.126L185.947 489.107L185.24 488.4ZM185.216 489.6L184.509 490.307L184.527 490.326L184.547 490.343L185.216 489.6ZM186.488 489.576L187.231 490.245L187.247 490.227L187.262 490.209L186.488 489.576ZM186.464 488.376L185.795 489.119L185.816 489.139L185.839 489.157L186.464 488.376ZM187.376 481.48C189.38 481.48 190.737 482.146 191.632 483.373L193.248 482.195C191.903 480.35 189.884 479.48 187.376 479.48V481.48ZM191.639 483.383C192.592 484.659 193.144 486.634 193.144 489.456H195.144C195.144 486.422 194.559 483.949 193.241 482.185L191.639 483.383ZM193.144 489.456C193.144 490.904 192.963 491.887 192.683 492.494L194.5 493.33C194.957 492.337 195.144 491.016 195.144 489.456H193.144ZM192.68 492.502C192.452 493.01 192.053 493.387 191.383 493.626L192.056 495.51C193.178 495.109 194.028 494.382 194.504 493.322L192.68 492.502ZM191.378 493.628C190.662 493.889 189.521 494.048 187.88 494.048V496.048C189.599 496.048 191.017 495.887 192.062 495.508L191.378 493.628ZM187.88 494.048C186.881 494.048 186.044 493.957 185.358 493.789L184.882 495.731C185.763 495.947 186.767 496.048 187.88 496.048V494.048ZM185.358 493.789C184.794 493.651 184.313 493.35 183.898 492.85L182.358 494.126C183.031 494.938 183.877 495.485 184.882 495.731L185.358 493.789ZM183.907 492.861C183.581 492.456 183.336 491.745 183.336 490.56H181.336C181.336 491.967 181.619 493.208 182.349 494.115L183.907 492.861ZM183.336 490.56C183.336 489.197 183.662 488.474 184.064 488.108L182.719 486.628C181.714 487.542 181.336 488.947 181.336 490.56H183.336ZM184.056 488.115C184.604 487.628 185.187 487.408 185.84 487.408V485.408C184.668 485.408 183.619 485.828 182.727 486.621L184.056 488.115ZM185.84 487.408C186.528 487.408 186.886 487.589 187.088 487.799L188.527 486.409C187.833 485.691 186.88 485.408 185.84 485.408V487.408ZM187.113 487.823C187.349 488.052 187.504 488.374 187.504 488.904H189.504C189.504 487.93 189.194 487.052 188.502 486.385L187.113 487.823ZM187.504 488.904C187.504 489.329 187.376 489.691 187.104 490.025L188.656 491.287C189.216 490.597 189.504 489.791 189.504 488.904H187.504ZM187.092 490.04C186.894 490.294 186.649 490.424 186.248 490.424V492.424C187.223 492.424 188.066 492.042 188.668 491.272L187.092 490.04ZM186.248 490.424C186.116 490.424 186.014 490.409 185.935 490.387L185.409 492.317C185.681 492.391 185.963 492.424 186.248 492.424V490.424ZM184.675 491.432C184.731 492.13 185.076 492.748 185.753 493.086L186.647 491.298C186.639 491.294 186.642 491.294 186.65 491.301C186.654 491.305 186.659 491.309 186.663 491.315C186.668 491.32 186.671 491.325 186.674 491.33C186.681 491.34 186.681 491.344 186.679 491.337C186.677 491.329 186.672 491.309 186.669 491.272L184.675 491.432ZM185.806 493.111C186.351 493.345 187.158 493.408 188.048 493.408V491.408C187.146 491.408 186.72 491.327 186.594 491.273L185.806 493.111ZM188.048 493.408C188.803 493.408 189.498 493.337 190.034 493.118L189.277 491.266C189.11 491.335 188.733 491.408 188.048 491.408V493.408ZM190.034 493.118C190.71 492.841 191.132 492.293 191.348 491.644L189.451 491.012C189.379 491.227 189.306 491.255 189.277 491.266L190.034 493.118ZM191.342 491.664C191.562 491.048 191.64 490.209 191.64 489.24H189.64C189.64 490.159 189.558 490.712 189.458 490.992L191.342 491.664ZM191.64 489.24C191.64 487.114 191.392 485.378 190.796 484.148L188.996 485.02C189.392 485.838 189.64 487.206 189.64 489.24H191.64ZM190.796 484.148C190.477 483.491 190.023 482.949 189.414 482.578C188.808 482.209 188.114 482.048 187.376 482.048V484.048C187.822 484.048 188.139 484.143 188.373 484.286C188.605 484.427 188.818 484.653 188.996 485.02L190.796 484.148ZM187.376 482.048C186.51 482.048 185.719 482.308 185.079 482.877L186.408 484.371C186.632 484.172 186.929 484.048 187.376 484.048V482.048ZM185.095 482.863C184.429 483.43 184.096 484.193 184.096 485.064H186.096C186.096 484.751 186.194 484.554 186.392 484.385L185.095 482.863ZM184.096 485.064C184.096 485.188 184.076 485.251 184.066 485.274C184.059 485.292 184.054 485.298 184.043 485.306C184.007 485.334 183.839 485.432 183.368 485.432V487.432C184.049 487.432 184.744 487.302 185.284 486.874C185.869 486.411 186.096 485.744 186.096 485.064H184.096ZM183.368 485.432C182.911 485.432 182.747 485.346 182.72 485.327L181.567 486.961C182.084 487.326 182.737 487.432 183.368 487.432V485.432ZM182.774 485.368C182.795 485.385 182.797 485.399 182.79 485.38C182.78 485.353 182.76 485.28 182.76 485.136H180.76C180.76 485.773 180.939 486.454 181.513 486.92L182.774 485.368ZM182.76 485.136C182.76 484.477 182.944 483.895 183.321 483.36L181.686 482.208C181.071 483.081 180.76 484.067 180.76 485.136H182.76ZM183.327 483.351C183.716 482.787 184.246 482.339 184.946 482.008L184.093 480.2C183.097 480.669 182.284 481.341 181.68 482.217L183.327 483.351ZM184.954 482.005C185.671 481.66 186.473 481.48 187.376 481.48V479.48C186.198 479.48 185.096 479.716 184.086 480.203L184.954 482.005ZM185.864 487.16C185.381 487.16 184.905 487.32 184.533 487.693L185.947 489.107C185.939 489.115 185.929 489.124 185.915 489.133C185.901 489.142 185.887 489.148 185.875 489.153C185.849 489.163 185.84 489.16 185.864 489.16V487.16ZM184.571 487.657C184.16 488.026 184 488.519 184 489H186C186 488.976 186.004 488.991 185.988 489.029C185.971 489.071 185.943 489.113 185.909 489.143L184.571 487.657ZM184 489C184 489.449 184.132 489.93 184.509 490.307L185.923 488.893C185.96 488.93 185.983 488.971 185.995 489.003C186.005 489.032 186 489.035 186 489H184ZM184.547 490.343C184.924 490.683 185.386 490.816 185.84 490.816V488.816C185.805 488.816 185.802 488.811 185.819 488.817C185.827 488.82 185.838 488.825 185.851 488.832C185.864 488.84 185.875 488.848 185.885 488.857L184.547 490.343ZM185.84 490.816C186.311 490.816 186.839 490.68 187.231 490.245L185.744 488.907C185.765 488.885 185.788 488.865 185.812 488.849C185.835 488.833 185.856 488.824 185.87 488.818C185.898 488.808 185.894 488.816 185.84 488.816V490.816ZM187.262 490.209C187.56 489.844 187.704 489.409 187.704 488.952H185.704C185.704 488.962 185.703 488.967 185.703 488.967C185.703 488.968 185.703 488.965 185.705 488.961C185.706 488.956 185.708 488.952 185.711 488.948C185.713 488.944 185.714 488.942 185.714 488.943L187.262 490.209ZM187.704 488.952C187.704 488.475 187.544 487.959 187.088 487.595L185.839 489.157C185.786 489.114 185.744 489.057 185.721 489.001C185.7 488.95 185.704 488.926 185.704 488.952H187.704ZM187.133 487.633C186.768 487.304 186.32 487.16 185.864 487.16V489.16C185.883 489.16 185.877 489.163 185.855 489.155C185.845 489.151 185.833 489.146 185.822 489.139C185.81 489.132 185.801 489.125 185.795 489.119L187.133 487.633ZM208.51 481.992L207.798 482.694L207.808 482.704L208.51 481.992ZM209.278 493.008L208.395 492.54L208.39 492.548L209.278 493.008ZM203.614 494.112L202.897 494.809L203.614 494.112ZM202.75 490.92H203.75V489.92H202.75V490.92ZM200.734 490.2L200.06 490.939L200.066 490.944L200.073 490.95L200.734 490.2ZM200.734 486.312L200.071 485.563L200.066 485.568L200.06 485.573L200.734 486.312ZM204.982 486.456L204.195 487.073L204.203 487.083L204.982 486.456ZM205.678 488.904L206.678 488.933L206.678 488.919V488.904H205.678ZM205.654 489.72L206.653 489.773L206.653 489.761L206.654 489.749L205.654 489.72ZM205.654 492.336L206.635 492.14L205.654 492.336ZM206.278 491.88L207.224 492.206L207.227 492.196L206.278 491.88ZM206.686 490.056L207.675 490.206L207.675 490.203L206.686 490.056ZM200.686 483.84L199.918 483.2L200.686 483.84ZM199.678 486.912L200.674 487.007L200.675 486.993L199.678 486.912ZM199.27 487.776L198.563 487.069L198.563 487.069L199.27 487.776ZM196.918 487.704L196.153 488.348L196.162 488.358L196.171 488.368L196.918 487.704ZM197.35 483.168L196.488 482.662V482.662L197.35 483.168ZM199.75 480.984L200.197 481.878L200.208 481.873L199.75 480.984ZM202.15 489.048L201.413 489.724L201.428 489.74L201.443 489.755L202.15 489.048ZM203.542 489.072L204.215 489.812L204.232 489.796L204.249 489.779L203.542 489.072ZM203.542 487.68L202.805 488.356L202.82 488.372L202.835 488.387L203.542 487.68ZM203.494 481.168C205.443 481.168 206.832 481.715 207.798 482.694L209.222 481.29C207.789 479.837 205.834 479.168 203.494 479.168V481.168ZM207.808 482.704C208.743 483.627 209.334 485.29 209.334 487.968H211.334C211.334 485.078 210.709 482.757 209.213 481.28L207.808 482.704ZM209.334 487.968C209.334 489.892 209 491.398 208.395 492.54L210.162 493.476C210.964 491.962 211.334 490.108 211.334 487.968H209.334ZM208.39 492.548C208.119 493.071 207.788 493.419 207.412 493.642C207.034 493.866 206.549 494 205.918 494V496C206.839 496 207.691 495.802 208.432 495.362C209.176 494.921 209.749 494.273 210.166 493.468L208.39 492.548ZM205.918 494C205.181 494 204.688 493.782 204.331 493.415L202.897 494.809C203.693 495.626 204.736 496 205.918 496V494ZM204.331 493.415C203.972 493.046 203.75 492.523 203.75 491.736H201.75C201.75 492.933 202.104 493.994 202.897 494.809L204.331 493.415ZM203.75 491.736V490.92H201.75V491.736H203.75ZM202.75 489.92H202.702V491.92H202.75V489.92ZM202.702 489.92C202.162 489.92 201.746 489.759 201.396 489.45L200.073 490.95C200.811 491.601 201.706 491.92 202.702 491.92V489.92ZM201.408 489.461C201.091 489.172 200.918 488.802 200.918 488.256H198.918C198.918 489.31 199.289 490.236 200.06 490.939L201.408 489.461ZM200.918 488.256C200.918 487.71 201.091 487.34 201.408 487.051L200.06 485.573C199.289 486.276 198.918 487.202 198.918 488.256H200.918ZM201.397 487.061C201.746 486.751 202.21 486.568 202.87 486.568V484.568C201.802 484.568 200.842 484.881 200.071 485.563L201.397 487.061ZM202.87 486.568C203.593 486.568 203.968 486.783 204.195 487.073L205.769 485.839C205.068 484.945 204.035 484.568 202.87 484.568V486.568ZM204.203 487.083C204.474 487.419 204.678 487.981 204.678 488.904H206.678C206.678 487.715 206.418 486.645 205.761 485.829L204.203 487.083ZM204.679 488.875L204.655 489.691L206.654 489.749L206.678 488.933L204.679 488.875ZM204.656 489.667C204.623 490.286 204.606 490.816 204.606 491.256H206.606C206.606 490.864 206.621 490.37 206.653 489.773L204.656 489.667ZM204.606 491.256C204.606 491.789 204.618 492.256 204.674 492.532L206.635 492.14C206.635 492.141 206.625 492.076 206.617 491.902C206.61 491.742 206.606 491.528 206.606 491.256H204.606ZM204.674 492.532C204.708 492.704 204.786 492.96 204.989 493.185C205.223 493.445 205.544 493.576 205.87 493.576V491.576C205.963 491.576 206.076 491.593 206.192 491.644C206.31 491.695 206.405 491.769 206.476 491.847C206.606 491.992 206.632 492.128 206.635 492.14L204.674 492.532ZM205.87 493.576C206.256 493.576 206.519 493.378 206.642 493.263C206.772 493.141 206.861 493.006 206.919 492.908C207.037 492.706 207.137 492.458 207.224 492.206L205.333 491.554C205.26 491.766 205.211 491.866 205.194 491.896C205.183 491.914 205.208 491.866 205.276 491.802C205.337 491.745 205.541 491.576 205.87 491.576V493.576ZM207.227 492.196C207.411 491.643 207.558 490.975 207.675 490.206L205.698 489.906C205.591 490.609 205.465 491.157 205.33 491.564L207.227 492.196ZM207.675 490.203C207.795 489.402 207.854 488.593 207.854 487.776H205.854C205.854 488.495 205.802 489.206 205.697 489.909L207.675 490.203ZM207.854 487.776C207.854 485.916 207.589 484.352 206.842 483.342L205.234 484.53C205.575 484.992 205.854 485.988 205.854 487.776H207.854ZM206.842 483.342C206.062 482.285 204.872 481.832 203.494 481.832V483.832C204.42 483.832 204.927 484.115 205.234 484.53L206.842 483.342ZM203.494 481.832C202.036 481.832 200.747 482.205 199.918 483.2L201.454 484.48C201.745 484.131 202.328 483.832 203.494 483.832V481.832ZM199.918 483.2C199.17 484.098 198.801 485.359 198.682 486.831L200.675 486.993C200.779 485.713 201.083 484.926 201.454 484.48L199.918 483.2ZM198.683 486.817C198.673 486.92 198.64 486.992 198.563 487.069L199.977 488.483C200.381 488.08 200.62 487.576 200.674 487.007L198.683 486.817ZM198.563 487.069C198.587 487.045 198.522 487.136 198.142 487.136V489.136C198.786 489.136 199.473 488.987 199.977 488.483L198.563 487.069ZM198.142 487.136C197.944 487.136 197.82 487.11 197.749 487.085C197.685 487.062 197.668 487.042 197.666 487.04L196.171 488.368C196.689 488.952 197.429 489.136 198.142 489.136V487.136ZM197.683 487.06C197.651 487.021 197.534 486.826 197.534 486.264H195.534C195.534 487.014 195.674 487.779 196.153 488.348L197.683 487.06ZM197.534 486.264C197.534 485.295 197.764 484.44 198.213 483.674L196.488 482.662C195.849 483.752 195.534 484.961 195.534 486.264H197.534ZM198.213 483.674C198.649 482.929 199.297 482.329 200.197 481.878L199.303 480.09C198.091 480.695 197.139 481.551 196.488 482.662L198.213 483.674ZM200.208 481.873C201.096 481.416 202.18 481.168 203.494 481.168V479.168C201.928 479.168 200.517 479.464 199.292 480.095L200.208 481.873ZM200.886 488.352C200.886 488.862 201.06 489.339 201.413 489.724L202.887 488.372C202.883 488.368 202.883 488.366 202.884 488.368C202.885 488.37 202.886 488.372 202.887 488.375C202.888 488.378 202.888 488.379 202.888 488.376C202.887 488.374 202.886 488.366 202.886 488.352H200.886ZM201.443 489.755C201.836 490.148 202.338 490.312 202.846 490.312V488.312C202.804 488.312 202.797 488.306 202.811 488.311C202.818 488.314 202.826 488.318 202.836 488.324C202.846 488.33 202.853 488.336 202.857 488.341L201.443 489.755ZM202.846 490.312C203.328 490.312 203.818 490.173 204.215 489.812L202.87 488.332C202.876 488.326 202.884 488.32 202.893 488.315C202.901 488.31 202.908 488.308 202.91 488.307C202.916 488.305 202.898 488.312 202.846 488.312V490.312ZM204.249 489.779C204.643 489.386 204.806 488.884 204.806 488.376H202.806C202.806 488.418 202.8 488.425 202.805 488.411C202.808 488.405 202.812 488.396 202.818 488.386C202.824 488.377 202.831 488.369 202.835 488.365L204.249 489.779ZM204.806 488.376C204.806 487.868 204.643 487.366 204.249 486.973L202.835 488.387C202.831 488.383 202.824 488.375 202.818 488.366C202.812 488.356 202.808 488.347 202.805 488.341C202.8 488.327 202.806 488.334 202.806 488.376H204.806ZM204.279 487.004C203.905 486.596 203.408 486.392 202.87 486.392V488.392C202.879 488.392 202.88 488.393 202.875 488.392C202.87 488.391 202.86 488.388 202.848 488.383C202.836 488.378 202.826 488.372 202.817 488.366C202.808 488.359 202.805 488.355 202.805 488.356L204.279 487.004ZM202.87 486.392C202.335 486.392 201.835 486.581 201.443 486.973L202.857 488.387C202.861 488.384 202.861 488.384 202.858 488.386C202.855 488.388 202.85 488.391 202.846 488.392C202.841 488.394 202.839 488.394 202.842 488.394C202.845 488.393 202.854 488.392 202.87 488.392V486.392ZM201.443 486.973C201.061 487.355 200.886 487.842 200.886 488.352H202.886C202.886 488.345 202.887 488.34 202.887 488.337C202.887 488.333 202.887 488.332 202.887 488.332C202.887 488.332 202.887 488.333 202.886 488.336C202.886 488.338 202.885 488.342 202.883 488.346C202.88 488.354 202.875 488.363 202.869 488.372C202.864 488.38 202.859 488.385 202.857 488.387L201.443 486.973ZM225.383 482.64L224.626 483.293L224.63 483.298L225.383 482.64ZM226.751 494.736L227.316 495.561L227.33 495.551L227.344 495.541L226.751 494.736ZM224.207 494.736L223.652 495.568L223.666 495.577L223.681 495.586L224.207 494.736ZM222.767 484.584L221.931 485.132L221.937 485.142L222.767 484.584ZM217.247 484.752L216.395 484.228L216.39 484.238L217.247 484.752ZM217.247 492.072L216.783 491.186L216.774 491.191L216.765 491.196L217.247 492.072ZM218.279 491.4L217.7 490.584L217.684 490.596L217.668 490.609L218.279 491.4ZM219.455 490.368L220.214 491.019L221.629 489.368H219.455V490.368ZM219.359 490.368L219.297 491.366L219.328 491.368H219.359V490.368ZM217.967 489.696L217.246 490.389L217.253 490.396L217.26 490.403L217.967 489.696ZM218.111 486.264L218.807 486.983L218.807 486.982L218.111 486.264ZM222.119 486.264L221.401 486.959L221.412 486.971L221.424 486.983L222.119 486.264ZM222.143 490.584L221.306 490.038L222.143 490.584ZM220.079 492.912L219.406 492.173L219.397 492.181L220.079 492.912ZM217.775 494.52L218.215 495.418L217.775 494.52ZM213.239 492.96L214.226 492.796L214.225 492.79L213.239 492.96ZM214.799 482.688L215.556 483.342L215.56 483.337L214.799 482.688ZM219.407 488.784L218.731 489.521L218.746 489.535L218.761 489.547L219.407 488.784ZM220.823 487.416L220.116 488.123L220.145 488.153L220.177 488.179L220.823 487.416ZM220.127 481.552C222.22 481.552 223.662 482.175 224.626 483.293L226.141 481.987C224.704 480.321 222.642 479.552 220.127 479.552V481.552ZM224.63 483.298C225.636 484.449 226.207 486.151 226.207 488.544H228.207C228.207 485.849 227.563 483.615 226.136 481.982L224.63 483.298ZM226.207 488.544V493.848H228.207V488.544H226.207ZM226.207 493.848C226.207 493.871 226.205 493.883 226.204 493.887C226.203 493.891 226.203 493.891 226.204 493.889C226.204 493.887 226.204 493.889 226.199 493.895C226.193 493.901 226.181 493.914 226.158 493.931L227.344 495.541C227.896 495.134 228.207 494.543 228.207 493.848H226.207ZM226.186 493.911C226.111 493.963 225.913 494.048 225.479 494.048V496.048C226.134 496.048 226.784 495.925 227.316 495.561L226.186 493.911ZM225.479 494.048C225.099 494.048 224.871 493.971 224.734 493.886L223.681 495.586C224.215 495.917 224.835 496.048 225.479 496.048V494.048ZM224.762 493.904C224.7 493.863 224.693 493.841 224.699 493.852C224.701 493.857 224.703 493.862 224.704 493.865C224.705 493.868 224.703 493.863 224.703 493.848H222.703C222.703 494.587 223.07 495.18 223.652 495.568L224.762 493.904ZM224.703 493.848V488.64H222.703V493.848H224.703ZM224.703 488.64C224.703 486.773 224.38 485.19 223.597 484.026L221.937 485.142C222.403 485.834 222.703 486.955 222.703 488.64H224.703ZM223.604 484.036C222.788 482.791 221.532 482.192 220.007 482.192V484.192C220.946 484.192 221.53 484.521 221.931 485.132L223.604 484.036ZM220.007 482.192C218.452 482.192 217.214 482.899 216.395 484.228L218.099 485.276C218.561 484.525 219.162 484.192 220.007 484.192V482.192ZM216.39 484.238C215.628 485.506 215.311 487.265 215.311 489.384H217.311C217.311 487.407 217.618 486.078 218.105 485.266L216.39 484.238ZM215.311 489.384C215.311 490.377 215.339 491.161 215.402 491.711C215.432 491.977 215.476 492.247 215.554 492.475C215.591 492.583 215.659 492.753 215.786 492.913C215.92 493.081 216.205 493.336 216.647 493.336V491.336C217.033 491.336 217.266 491.561 217.351 491.667C217.394 491.721 217.419 491.767 217.43 491.79C217.436 491.802 217.44 491.812 217.443 491.818C217.445 491.824 217.446 491.828 217.447 491.828C217.447 491.829 217.444 491.822 217.44 491.805C217.436 491.788 217.431 491.765 217.425 491.734C217.413 491.673 217.401 491.591 217.389 491.485C217.339 491.051 217.311 490.359 217.311 489.384H215.311ZM216.647 493.336C216.821 493.336 216.964 493.294 217.029 493.273C217.112 493.248 217.191 493.216 217.26 493.185C217.399 493.124 217.558 493.042 217.729 492.948L216.765 491.196C216.616 491.278 216.516 491.328 216.454 491.355C216.423 491.368 216.417 491.369 216.43 491.366C216.437 491.363 216.457 491.357 216.487 491.351C216.514 491.346 216.571 491.336 216.647 491.336V493.336ZM217.711 492.958C218.107 492.751 218.5 492.493 218.891 492.191L217.668 490.609C217.354 490.851 217.059 491.041 216.783 491.186L217.711 492.958ZM218.858 492.216C219.398 491.832 219.858 491.435 220.214 491.019L218.696 489.717C218.477 489.973 218.153 490.264 217.7 490.584L218.858 492.216ZM219.455 489.368H219.359V491.368H219.455V489.368ZM219.422 489.37C219.188 489.355 218.945 489.26 218.674 488.989L217.26 490.403C217.821 490.964 218.506 491.317 219.297 491.366L219.422 489.37ZM218.688 489.003C218.482 488.789 218.367 488.525 218.367 488.136H216.367C216.367 488.995 216.652 489.771 217.246 490.389L218.688 489.003ZM218.367 488.136C218.367 487.605 218.528 487.252 218.807 486.983L217.416 485.545C216.702 486.236 216.367 487.131 216.367 488.136H218.367ZM218.807 486.982C219.098 486.701 219.51 486.52 220.151 486.52V484.52C219.096 484.52 218.149 484.835 217.415 485.546L218.807 486.982ZM220.151 486.52C220.772 486.52 221.147 486.697 221.401 486.959L222.838 485.569C222.131 484.839 221.194 484.52 220.151 484.52V486.52ZM221.424 486.983C221.702 487.252 221.863 487.605 221.863 488.136H223.863C223.863 487.131 223.528 486.236 222.815 485.545L221.424 486.983ZM221.863 488.136C221.863 488.842 221.677 489.468 221.306 490.038L222.981 491.13C223.569 490.228 223.863 489.222 223.863 488.136H221.863ZM221.306 490.038C220.886 490.682 220.261 491.394 219.406 492.173L220.752 493.651C221.689 492.798 222.441 491.958 222.981 491.13L221.306 490.038ZM219.397 492.181C218.743 492.791 218.055 493.269 217.335 493.622L218.215 495.418C219.127 494.971 219.975 494.377 220.761 493.643L219.397 492.181ZM217.335 493.622C216.602 493.981 216.028 494.12 215.591 494.12V496.12C216.434 496.12 217.316 495.859 218.215 495.418L217.335 493.622ZM215.591 494.12C215.113 494.12 214.848 493.995 214.684 493.843C214.507 493.682 214.322 493.376 214.226 492.796L212.253 493.124C212.396 493.984 212.723 494.758 213.331 495.317C213.95 495.885 214.741 496.12 215.591 496.12V494.12ZM214.225 492.79C214.154 492.382 214.093 491.77 214.046 490.935L212.049 491.049C212.097 491.91 212.164 492.61 212.254 493.13L214.225 492.79ZM214.046 490.935C213.998 490.101 213.975 489.369 213.975 488.736H211.975C211.975 489.415 212 490.187 212.049 491.049L214.046 490.935ZM213.975 488.736C213.975 486.254 214.551 484.506 215.556 483.342L214.042 482.034C212.616 483.686 211.975 485.97 211.975 488.736H213.975ZM215.56 483.337C216.54 482.189 218.005 481.552 220.127 481.552V479.552C217.577 479.552 215.49 480.339 214.039 482.039L215.56 483.337ZM218.119 488.064C218.119 488.597 218.298 489.124 218.731 489.521L220.083 488.047C220.088 488.052 220.096 488.06 220.103 488.071C220.111 488.082 220.116 488.092 220.12 488.101C220.126 488.118 220.119 488.111 220.119 488.064H218.119ZM218.761 489.547C219.149 489.876 219.618 490.048 220.127 490.048V488.048C220.101 488.048 220.09 488.044 220.087 488.043C220.085 488.042 220.074 488.038 220.053 488.021L218.761 489.547ZM220.127 490.048C220.611 490.048 221.159 489.93 221.582 489.518C222.009 489.101 222.135 488.552 222.135 488.064H220.135C220.135 488.104 220.133 488.132 220.13 488.15C220.127 488.168 220.125 488.174 220.126 488.171C220.127 488.168 220.131 488.157 220.141 488.14C220.147 488.132 220.153 488.123 220.16 488.114C220.168 488.104 220.176 488.095 220.185 488.086C220.194 488.078 220.203 488.07 220.212 488.063C220.22 488.056 220.229 488.051 220.236 488.047C220.251 488.038 220.259 488.035 220.259 488.036C220.258 488.036 220.247 488.039 220.225 488.042C220.203 488.045 220.171 488.048 220.127 488.048V490.048ZM222.135 488.064C222.135 487.493 221.885 487.005 221.469 486.653L220.177 488.179C220.189 488.189 220.173 488.179 220.156 488.144C220.148 488.128 220.143 488.111 220.139 488.095C220.136 488.079 220.135 488.068 220.135 488.064H222.135ZM221.53 486.709C221.15 486.329 220.664 486.128 220.127 486.128V488.128C220.136 488.128 220.139 488.129 220.137 488.128C220.134 488.128 220.129 488.127 220.123 488.124C220.117 488.121 220.112 488.119 220.11 488.117C220.108 488.116 220.11 488.117 220.116 488.123L221.53 486.709ZM220.127 486.128C219.593 486.128 219.079 486.306 218.676 486.709L220.09 488.123C220.091 488.122 220.09 488.124 220.085 488.127C220.081 488.13 220.077 488.132 220.074 488.133C220.072 488.134 220.073 488.133 220.081 488.131C220.089 488.13 220.104 488.128 220.127 488.128V486.128ZM218.676 486.709C218.307 487.078 218.119 487.551 218.119 488.064H220.119C220.119 488.057 220.12 488.057 220.119 488.063C220.118 488.068 220.115 488.077 220.111 488.087C220.107 488.098 220.102 488.107 220.097 488.114C220.092 488.121 220.089 488.124 220.09 488.123L218.676 486.709Z" fill="#342A0F" mask="url(#path-1-outside-1_7_112)"/>
</g>
<path d="M247.924 408.709C246.629 408.721 245.34 408.881 244.082 409.185C241.738 399.98 236.798 391.643 229.848 385.167C222.898 378.692 214.233 374.351 204.885 372.664C204.056 372.514 203.223 372.387 202.386 372.284C202.534 367.609 202.749 362.203 209.628 357.347L208.54 354.604C208.54 354.604 195.11 358.769 193.586 370.244C192.923 367.122 186.673 363.217 183.573 362.475L182.032 364.957C182.032 364.957 186.134 367.008 187.137 372.669C177.79 374.352 169.124 378.687 162.171 385.157C155.219 391.627 150.273 399.96 147.924 409.163C145.877 408.656 143.75 408.557 141.665 408.873C139.579 409.188 137.576 409.911 135.771 411C133.965 412.089 132.391 413.523 131.139 415.221C129.888 416.918 128.983 418.845 128.476 420.893C127.969 422.94 127.871 425.067 128.186 427.152C128.501 429.237 129.224 431.24 130.313 433.046C131.402 434.852 132.837 436.426 134.534 437.677C136.231 438.929 138.159 439.834 140.206 440.341C143.443 441.14 146.849 440.915 149.953 439.695C151.323 443.113 153.071 446.367 155.166 449.396L168.494 440.414C164.879 435.841 162.714 429.149 162.334 422.434C161.938 415.101 163.717 407.837 168.398 403.564C178.042 395.353 188.548 399.099 195.105 406.964H196.873C203.446 399.099 213.969 395.359 223.58 403.564C228.255 407.837 230.04 415.113 229.643 422.434C229.275 429.149 227.104 435.841 223.483 440.414L236.817 449.396C238.916 446.368 240.668 443.114 242.042 439.695C246.002 441.259 250.421 441.186 254.328 439.493C258.234 437.799 261.308 434.622 262.872 430.662C264.437 426.702 264.364 422.282 262.67 418.376C260.976 414.469 257.8 411.396 253.84 409.831C251.957 409.083 249.949 408.702 247.924 408.709ZM143.787 429.472C142.531 429.472 141.326 428.973 140.437 428.084C139.549 427.196 139.05 425.991 139.05 424.735C139.05 423.478 139.549 422.273 140.437 421.385C141.326 420.496 142.531 419.997 143.787 419.997C144.735 419.999 145.66 420.283 146.445 420.813C146.483 423.307 146.653 425.789 146.955 428.259C146.116 429.019 144.836 429.58 143.787 429.472ZM248.207 429.472C247.039 429.468 245.914 429.034 245.045 428.254C245.341 425.782 245.511 423.297 245.555 420.808C246.267 420.324 247.098 420.044 247.957 419.998C248.817 419.951 249.673 420.14 250.433 420.544C251.193 420.948 251.829 421.552 252.271 422.29C252.714 423.029 252.946 423.874 252.944 424.735C252.984 427.324 250.774 429.597 248.207 429.472Z" fill="#342A0F"/>
<defs>
<filter id="filter0_d_7_112" x="160.175" y="468.592" width="72.0325" height="35.528" filterUnits="userSpaceOnUse" color-interpolation-filters="sRGB">
<feFlood flood-opacity="0" result="BackgroundImageFix"/>
<feColorMatrix in="SourceAlpha" type="matrix" values="0 0 0 0 0 0 0 0 0 0 0 0 0 0 0 0 0 0 127 0" result="hardAlpha"/>
<feOffset dy="4"/>
<feGaussianBlur stdDeviation="2"/>
<feComposite in2="hardAlpha" operator="out"/>
<feColorMatrix type="matrix" values="0 0 0 0 0 0 0 0 0 0 0 0 0 0 0 0 0 0 0.25 0"/>
<feBlend mode="normal" in2="BackgroundImageFix" result="effect1_dropShadow_7_112"/>
<feBlend mode="normal" in="SourceGraphic" in2="effect1_dropShadow_7_112" result="shape"/>
</filter>
<linearGradient id="paint0_linear_7_112" x1="196.5" y1="0" x2="196.5" y2="852" gradientUnits="userSpaceOnUse">
<stop stop-color="#FCDD45"/>
<stop offset="0.476667" stop-color="#D5B73F"/>
<stop offset="1" stop-color="#4C3228"/>
</linearGradient>
</defs>
</svg>
